# xmcd
#
# Track frame offsets:
#	150
#	16492
#	38167
#	57317
#	77417
#	96274
#	108965
#	123515
#	146253
#	163276
#
# Disc length: 2412 seconds
#
# Revision: 0
# Processed by: cddbd v1.5.1PL0 Copyright (c) Steve Scherf et al.
# Submitted via: dBpowerAMP V4.0
#
DISCID=7d096a0a
DTITLE=Dario Lombardo and The Blues Gang - Searching For Gold
DYEAR=2003
DGENRE=Blues
TTITLE0=Lonesome Blues
TTITLE1=I Can't Stand The Pain
TTITLE2=Sorry Don't Fix
TTITLE3=Bad Neighbourhoods
TTITLE4=Searching For Gold
TTITLE5=New Age Blues
TTITLE6=I Still Call I The Blues
TTITLE7=I'm Tired
TTITLE8=K's Waves
TTITLE9=It's Breacking Me up
EXTD=
EXTT0=
EXTT1=
EXTT2=
EXTT3=
EXTT4=
EXTT5=
EXTT6=
EXTT7=
EXTT8=
EXTT9=
PLAYORDER=
